<svg width="512" height="512" viewBox="0 0 512 512" fill="none" xmlns="http://www.w3.org/2000/svg">
<g clip-path="url(#clip0_105_2476)">
<path d="M256 512C397.385 512 512 397.385 512 256C512 114.615 397.385 0 256 0C114.615 0 0 114.615 0 256C0 397.385 114.615 512 256 512Z" fill="#F0F0F0"/>
<path d="M233 273.607L256.607 250L272.346 265.739L248.739 289.346L233 273.607Z" fill="black"/>
<path d="M250 254.5L273.607 230.893L289.346 246.631L265.739 270.239L250 254.5Z" fill="black"/>
<path d="M397.593 381.921L421.201 358.313L436.939 374.052L413.332 397.659L397.593 381.921Z" fill="black"/>
<path d="M358.237 421.274L381.844 397.667L397.583 413.405L373.975 437.013L358.237 421.274Z" fill="black"/>
<path d="M373.983 358.316L397.59 334.709L413.329 350.447L389.721 374.055L373.983 358.316Z" fill="black"/>
<path d="M239 314.364L272.358 313L273.267 335.239L239.909 336.603L239 314.364Z" fill="black"/>
<path d="M397.697 177.335L334.744 114.382L350.482 98.6433L413.436 161.597L397.697 177.335Z" fill="black"/>
<path d="M216.614 197.036L244.054 178.019L256.732 196.312L229.291 215.329L216.614 197.036Z" fill="black"/>
<path d="M270.362 207.78L238 199.575L243.47 178.001L275.832 186.205L270.362 207.78Z" fill="black"/>
<path d="M267 239.313L278.581 208L299.457 215.721L287.876 247.034L267 239.313Z" fill="black"/>
<path d="M283.607 227.346L260 203.739L275.739 188L299.346 211.607L283.607 227.346Z" fill="black"/>
<path d="M90.7544 358.272L153.708 421.225L137.969 436.964L75.0159 374.011L90.7544 358.272Z" fill="black"/>
<path d="M153.705 373.998L177.312 397.605L161.574 413.343L137.967 389.736L153.705 373.998Z" fill="black"/>
<path d="M114.355 334.659L137.962 358.267L122.224 374.005L98.6165 350.398L114.355 334.659Z" fill="black"/>
<path d="M137.965 311.045L200.919 373.999L185.18 389.737L122.227 326.784L137.965 311.045Z" fill="black"/>
<path d="M153.701 90.7236L90.7478 153.677L75.0092 137.939L137.963 74.9851L153.701 90.7236Z" fill="black"/>
<path d="M177.309 114.328L114.356 177.282L98.6172 161.543L161.571 98.5898L177.309 114.328Z" fill="black"/>
<path d="M200.938 137.95L137.985 200.904L122.247 185.166L185.201 122.212L200.938 137.95Z" fill="black"/>
</g>
<defs>
<clipPath id="clip0_105_2476">
<rect width="512" height="512" fill="white"/>
</clipPath>
</defs>
</svg>
